<mxfile host="app.diagrams.net" modified="2024-02-02T19:02:40.667Z" agent="Mozilla/5.0 (X11; Linux x86_64; rv:120.0) Gecko/20100101 Firefox/120.0" etag="NHMe_R6LCpF_HmJcxXQs" version="23.1.1" type="device">
  <diagram name="Page-1" id="RrnDsPkW8LmoAtq7c2_i">
    <mxGraphModel dx="782" dy="498" grid="1" gridSize="10" guides="1" tooltips="1" connect="1" arrows="1" fold="1" page="1" pageScale="1" pageWidth="850" pageHeight="1100" math="0" shadow="0">
      <root>
        <mxCell id="0" />
        <mxCell id="1" parent="0" />
        <mxCell id="hGtPdH1oaJAf-c8pSY4Z-15" style="edgeStyle=orthogonalEdgeStyle;rounded=0;orthogonalLoop=1;jettySize=auto;html=1;exitX=1;exitY=0.5;exitDx=0;exitDy=0;exitPerimeter=0;startArrow=classic;startFill=1;" edge="1" parent="1" source="hGtPdH1oaJAf-c8pSY4Z-1" target="hGtPdH1oaJAf-c8pSY4Z-13">
          <mxGeometry relative="1" as="geometry" />
        </mxCell>
        <mxCell id="hGtPdH1oaJAf-c8pSY4Z-1" value="" style="verticalLabelPosition=bottom;html=1;verticalAlign=top;align=center;strokeColor=none;fillColor=#00BEF2;shape=mxgraph.azure.computer;pointerEvents=1;" vertex="1" parent="1">
          <mxGeometry x="80" y="40" width="80" height="70" as="geometry" />
        </mxCell>
        <mxCell id="hGtPdH1oaJAf-c8pSY4Z-2" value="Office PC" style="text;html=1;strokeColor=none;fillColor=none;align=center;verticalAlign=middle;whiteSpace=wrap;rounded=0;" vertex="1" parent="1">
          <mxGeometry x="80" y="120" width="80" height="20" as="geometry" />
        </mxCell>
        <mxCell id="hGtPdH1oaJAf-c8pSY4Z-16" style="edgeStyle=orthogonalEdgeStyle;rounded=0;orthogonalLoop=1;jettySize=auto;html=1;exitX=1;exitY=0.5;exitDx=0;exitDy=0;exitPerimeter=0;entryX=0.5;entryY=1;entryDx=0;entryDy=0;startArrow=classic;startFill=1;" edge="1" parent="1" source="hGtPdH1oaJAf-c8pSY4Z-3" target="hGtPdH1oaJAf-c8pSY4Z-14">
          <mxGeometry relative="1" as="geometry" />
        </mxCell>
        <mxCell id="hGtPdH1oaJAf-c8pSY4Z-3" value="" style="verticalLabelPosition=bottom;html=1;verticalAlign=top;align=center;strokeColor=none;fillColor=#00BEF2;shape=mxgraph.azure.computer;pointerEvents=1;" vertex="1" parent="1">
          <mxGeometry x="80" y="370" width="80" height="70" as="geometry" />
        </mxCell>
        <mxCell id="hGtPdH1oaJAf-c8pSY4Z-4" value="Work-From-Home PC" style="text;html=1;strokeColor=none;fillColor=none;align=center;verticalAlign=middle;whiteSpace=wrap;rounded=0;" vertex="1" parent="1">
          <mxGeometry x="60" y="460" width="120" height="20" as="geometry" />
        </mxCell>
        <mxCell id="hGtPdH1oaJAf-c8pSY4Z-6" value="" style="rounded=1;whiteSpace=wrap;html=1;strokeColor=default;dashed=1;dashPattern=1 1;fillColor=none;strokeWidth=2;" vertex="1" parent="1">
          <mxGeometry x="200" y="120" width="600" height="240" as="geometry" />
        </mxCell>
        <mxCell id="hGtPdH1oaJAf-c8pSY4Z-8" value="" style="image;aspect=fixed;perimeter=ellipsePerimeter;html=1;align=center;shadow=0;dashed=0;spacingTop=3;image=img/lib/active_directory/internet_cloud.svg;" vertex="1" parent="1">
          <mxGeometry x="450" y="90" width="100" height="63" as="geometry" />
        </mxCell>
        <mxCell id="hGtPdH1oaJAf-c8pSY4Z-9" value="&lt;div&gt;Cloud&lt;/div&gt;" style="text;html=1;strokeColor=none;fillColor=none;align=center;verticalAlign=middle;whiteSpace=wrap;rounded=0;" vertex="1" parent="1">
          <mxGeometry x="470" y="106.5" width="60" height="30" as="geometry" />
        </mxCell>
        <mxCell id="hGtPdH1oaJAf-c8pSY4Z-19" style="edgeStyle=orthogonalEdgeStyle;rounded=0;orthogonalLoop=1;jettySize=auto;html=1;exitX=0;exitY=0.5;exitDx=0;exitDy=0;exitPerimeter=0;startArrow=classic;startFill=1;" edge="1" parent="1" source="hGtPdH1oaJAf-c8pSY4Z-10" target="hGtPdH1oaJAf-c8pSY4Z-13">
          <mxGeometry relative="1" as="geometry" />
        </mxCell>
        <mxCell id="hGtPdH1oaJAf-c8pSY4Z-10" value="" style="verticalLabelPosition=bottom;html=1;verticalAlign=top;align=center;strokeColor=none;fillColor=#00BEF2;shape=mxgraph.azure.website_generic;pointerEvents=1;" vertex="1" parent="1">
          <mxGeometry x="390" y="185.2" width="100" height="85" as="geometry" />
        </mxCell>
        <mxCell id="hGtPdH1oaJAf-c8pSY4Z-12" value="Web Application (UI)" style="text;html=1;strokeColor=none;fillColor=none;align=center;verticalAlign=middle;whiteSpace=wrap;rounded=0;" vertex="1" parent="1">
          <mxGeometry x="400" y="287.5" width="60" height="30" as="geometry" />
        </mxCell>
        <mxCell id="hGtPdH1oaJAf-c8pSY4Z-13" value="" style="image;points=[];aspect=fixed;html=1;align=center;shadow=0;dashed=0;image=img/lib/allied_telesis/storage/Datacenter_Server_Half_Rack_ToR.svg;" vertex="1" parent="1">
          <mxGeometry x="229.9" y="170.4" width="88.2" height="114.6" as="geometry" />
        </mxCell>
        <mxCell id="hGtPdH1oaJAf-c8pSY4Z-14" value="Authentication" style="text;html=1;strokeColor=none;fillColor=none;align=center;verticalAlign=middle;whiteSpace=wrap;rounded=0;" vertex="1" parent="1">
          <mxGeometry x="236" y="290" width="76" height="25" as="geometry" />
        </mxCell>
        <mxCell id="hGtPdH1oaJAf-c8pSY4Z-17" value="" style="image;aspect=fixed;perimeter=ellipsePerimeter;html=1;align=center;shadow=0;dashed=0;spacingTop=3;image=img/lib/active_directory/database_server.svg;" vertex="1" parent="1">
          <mxGeometry x="700" y="185.2" width="65.6" height="80" as="geometry" />
        </mxCell>
        <mxCell id="hGtPdH1oaJAf-c8pSY4Z-18" value="Contacts Database" style="text;html=1;strokeColor=none;fillColor=none;align=center;verticalAlign=middle;whiteSpace=wrap;rounded=0;" vertex="1" parent="1">
          <mxGeometry x="702.8" y="285" width="60" height="30" as="geometry" />
        </mxCell>
        <mxCell id="hGtPdH1oaJAf-c8pSY4Z-21" value="" style="image;points=[];aspect=fixed;html=1;align=center;shadow=0;dashed=0;image=img/lib/allied_telesis/storage/Datacenter_Server_Half_Rack_ToR.svg;" vertex="1" parent="1">
          <mxGeometry x="550" y="167.89999999999998" width="88.2" height="114.6" as="geometry" />
        </mxCell>
        <mxCell id="hGtPdH1oaJAf-c8pSY4Z-22" style="edgeStyle=orthogonalEdgeStyle;rounded=0;orthogonalLoop=1;jettySize=auto;html=1;exitX=0;exitY=0.5;exitDx=0;exitDy=0;entryX=1.02;entryY=0.5;entryDx=0;entryDy=0;entryPerimeter=0;startArrow=classic;startFill=1;endArrow=classic;endFill=1;" edge="1" parent="1" source="hGtPdH1oaJAf-c8pSY4Z-17" target="hGtPdH1oaJAf-c8pSY4Z-21">
          <mxGeometry relative="1" as="geometry" />
        </mxCell>
        <mxCell id="hGtPdH1oaJAf-c8pSY4Z-25" style="edgeStyle=orthogonalEdgeStyle;rounded=0;orthogonalLoop=1;jettySize=auto;html=1;exitX=0.92;exitY=0.5;exitDx=0;exitDy=0;exitPerimeter=0;entryX=-0.011;entryY=0.516;entryDx=0;entryDy=0;entryPerimeter=0;startArrow=classic;startFill=1;" edge="1" parent="1" source="hGtPdH1oaJAf-c8pSY4Z-10" target="hGtPdH1oaJAf-c8pSY4Z-21">
          <mxGeometry relative="1" as="geometry" />
        </mxCell>
        <mxCell id="hGtPdH1oaJAf-c8pSY4Z-26" value="&lt;div&gt;API&lt;/div&gt;" style="text;html=1;strokeColor=none;fillColor=none;align=center;verticalAlign=middle;whiteSpace=wrap;rounded=0;" vertex="1" parent="1">
          <mxGeometry x="570" y="285" width="60" height="30" as="geometry" />
        </mxCell>
      </root>
    </mxGraphModel>
  </diagram>
</mxfile>
